<?xml version="1.0" encoding="utf-8"?>
<!-- Svg Vector Icons : http://www.onlinewebfonts.com/icon -->
<!DOCTYPE svg PUBLIC "-//W3C//DTD SVG 1.1//EN" "http://www.w3.org/Graphics/SVG/1.1/DTD/svg11.dtd">
<svg version="1.1" xmlns="http://www.w3.org/2000/svg" xmlns:xlink="http://www.w3.org/1999/xlink" x="0px" y="0px" viewBox="0 0 1000 1000" enable-background="new 0 0 1000 1000" xml:space="preserve">
<metadata> Svg Vector Icons : http://www.onlinewebfonts.com/icon </metadata>
<g><path d="M500,10C229.4,10,10,229.4,10,500c0,270.6,219.4,490,490,490c270.6,0,490-219.4,490-490C990,229.4,770.6,10,500,10z M225.5,741.6c0-118.2,74.8-218.9,179.5-257.7c-35.2-28-57.8-71.1-57.8-119.6c0-84.4,68.5-152.9,152.9-152.9c84.5,0,152.8,68.4,152.8,152.9c0,48.5-22.6,91.5-57.8,119.6c104.8,38.7,179.5,139.4,179.5,257.7H225.5z"/></g>
</svg>